<mxfile host="app.diagrams.net" agent="Mozilla/5.0 (Windows NT 10.0; Win64; x64) AppleWebKit/537.36 (KHTML, like Gecko) Chrome/133.0.0.0 Safari/537.36" version="26.0.14">
  <diagram name="Page-1" id="hFoKNEEG6IGRjH4m8m42">
    <mxGraphModel dx="1050" dy="557" grid="1" gridSize="10" guides="1" tooltips="1" connect="1" arrows="1" fold="1" page="1" pageScale="1" pageWidth="827" pageHeight="1169" math="0" shadow="0">
      <root>
        <mxCell id="0" />
        <mxCell id="1" parent="0" />
        <mxCell id="iH8EphdXS5o_FpI6IKeJ-7" style="edgeStyle=orthogonalEdgeStyle;rounded=0;orthogonalLoop=1;jettySize=auto;html=1;entryX=0;entryY=0.5;entryDx=0;entryDy=0;" edge="1" parent="1" source="iH8EphdXS5o_FpI6IKeJ-1" target="iH8EphdXS5o_FpI6IKeJ-3">
          <mxGeometry relative="1" as="geometry">
            <Array as="points">
              <mxPoint x="200" y="290" />
              <mxPoint x="200" y="290" />
            </Array>
          </mxGeometry>
        </mxCell>
        <mxCell id="iH8EphdXS5o_FpI6IKeJ-8" value="Sender JSON med epost og passord" style="edgeLabel;html=1;align=center;verticalAlign=middle;resizable=0;points=[];" vertex="1" connectable="0" parent="iH8EphdXS5o_FpI6IKeJ-7">
          <mxGeometry x="-0.2525" y="1" relative="1" as="geometry">
            <mxPoint x="-58" y="-9" as="offset" />
          </mxGeometry>
        </mxCell>
        <mxCell id="iH8EphdXS5o_FpI6IKeJ-1" value="Logg inn bilde" style="rounded=1;whiteSpace=wrap;html=1;" vertex="1" parent="1">
          <mxGeometry x="40" y="260" width="120" height="220" as="geometry" />
        </mxCell>
        <mxCell id="iH8EphdXS5o_FpI6IKeJ-6" style="edgeStyle=orthogonalEdgeStyle;rounded=0;orthogonalLoop=1;jettySize=auto;html=1;" edge="1" parent="1" source="iH8EphdXS5o_FpI6IKeJ-3" target="iH8EphdXS5o_FpI6IKeJ-5">
          <mxGeometry relative="1" as="geometry" />
        </mxCell>
        <mxCell id="iH8EphdXS5o_FpI6IKeJ-41" value="Sjekker om passord stemmer VerifyPassword()" style="edgeLabel;html=1;align=center;verticalAlign=middle;resizable=0;points=[];" vertex="1" connectable="0" parent="iH8EphdXS5o_FpI6IKeJ-6">
          <mxGeometry x="-0.01" y="2" relative="1" as="geometry">
            <mxPoint x="-2" y="10" as="offset" />
          </mxGeometry>
        </mxCell>
        <mxCell id="iH8EphdXS5o_FpI6IKeJ-35" style="edgeStyle=orthogonalEdgeStyle;rounded=0;orthogonalLoop=1;jettySize=auto;html=1;entryX=1;entryY=0.25;entryDx=0;entryDy=0;" edge="1" parent="1" source="iH8EphdXS5o_FpI6IKeJ-3" target="iH8EphdXS5o_FpI6IKeJ-1">
          <mxGeometry relative="1" as="geometry">
            <Array as="points">
              <mxPoint x="330" y="315" />
              <mxPoint x="330" y="315" />
            </Array>
          </mxGeometry>
        </mxCell>
        <mxCell id="iH8EphdXS5o_FpI6IKeJ-37" value="Tilbakemelding:&lt;div&gt;-token hvis ok&lt;/div&gt;&lt;div&gt;-feilmelding hvis feil&lt;/div&gt;" style="edgeLabel;html=1;align=center;verticalAlign=middle;resizable=0;points=[];" vertex="1" connectable="0" parent="iH8EphdXS5o_FpI6IKeJ-35">
          <mxGeometry x="-0.4713" relative="1" as="geometry">
            <mxPoint x="9" y="25" as="offset" />
          </mxGeometry>
        </mxCell>
        <mxCell id="iH8EphdXS5o_FpI6IKeJ-38" value="Frontend mottar token og lagrer&amp;nbsp;&lt;div&gt;dette for alle forespÃ¸rsler&lt;/div&gt;" style="edgeLabel;html=1;align=center;verticalAlign=middle;resizable=0;points=[];" vertex="1" connectable="0" parent="iH8EphdXS5o_FpI6IKeJ-35">
          <mxGeometry x="0.7369" y="3" relative="1" as="geometry">
            <mxPoint x="71" y="12" as="offset" />
          </mxGeometry>
        </mxCell>
        <mxCell id="iH8EphdXS5o_FpI6IKeJ-3" value="Backend mottar login og sjekker epost og passord mot database" style="rounded=0;whiteSpace=wrap;html=1;" vertex="1" parent="1">
          <mxGeometry x="610" y="260" width="120" height="60" as="geometry" />
        </mxCell>
        <mxCell id="iH8EphdXS5o_FpI6IKeJ-5" value="Database" style="shape=cylinder3;whiteSpace=wrap;html=1;boundedLbl=1;backgroundOutline=1;size=15;" vertex="1" parent="1">
          <mxGeometry x="610" y="400" width="120" height="80" as="geometry" />
        </mxCell>
        <mxCell id="iH8EphdXS5o_FpI6IKeJ-21" style="edgeStyle=orthogonalEdgeStyle;rounded=0;orthogonalLoop=1;jettySize=auto;html=1;entryX=0;entryY=0.5;entryDx=0;entryDy=0;" edge="1" parent="1" source="iH8EphdXS5o_FpI6IKeJ-14" target="iH8EphdXS5o_FpI6IKeJ-17">
          <mxGeometry relative="1" as="geometry">
            <Array as="points">
              <mxPoint x="230" y="70" />
              <mxPoint x="230" y="70" />
            </Array>
          </mxGeometry>
        </mxCell>
        <mxCell id="iH8EphdXS5o_FpI6IKeJ-24" value="&lt;span style=&quot;color: rgba(0, 0, 0, 0); font-family: monospace; font-size: 0px; text-align: start; background-color: rgb(251, 251, 251);&quot;&gt;%3CmxGraphModel%3E%3Croot%3E%3CmxCell%20id%3D%220%22%2F%3E%3CmxCell%20id%3D%221%22%20parent%3D%220%22%2F%3E%3CmxCell%20id%3D%222%22%20style%3D%22edgeStyle%3DorthogonalEdgeStyle%3Brounded%3D0%3BorthogonalLoop%3D1%3BjettySize%3Dauto%3Bhtml%3D1%3BentryX%3D0%3BentryY%3D0.5%3BentryDx%3D0%3BentryDy%3D0%3B%22%20edge%3D%221%22%20source%3D%224%22%20target%3D%227%22%20parent%3D%221%22%3E%3CmxGeometry%20relative%3D%221%22%20as%3D%22geometry%22%3E%3CArray%20as%3D%22points%22%3E%3CmxPoint%20x%3D%22200%22%20y%3D%22270%22%2F%3E%3CmxPoint%20x%3D%22200%22%20y%3D%22270%22%2F%3E%3C%2FArray%3E%3C%2FmxGeometry%3E%3C%2FmxCell%3E%3CmxCell%20id%3D%223%22%20value%3D%22Sender%20login%20JSON%22%20style%3D%22edgeLabel%3Bhtml%3D1%3Balign%3Dcenter%3BverticalAlign%3Dmiddle%3Bresizable%3D0%3Bpoints%3D%5B%5D%3B%22%20vertex%3D%221%22%20connectable%3D%220%22%20parent%3D%222%22%3E%3CmxGeometry%20x%3D%22-0.2525%22%20y%3D%221%22%20relative%3D%221%22%20as%3D%22geometry%22%3E%3CmxPoint%20as%3D%22offset%22%2F%3E%3C%2FmxGeometry%3E%3C%2FmxCell%3E%3CmxCell%20id%3D%224%22%20value%3D%22Logg%20inn%20bilde%22%20style%3D%22rounded%3D1%3BwhiteSpace%3Dwrap%3Bhtml%3D1%3B%22%20vertex%3D%221%22%20parent%3D%221%22%3E%3CmxGeometry%20x%3D%2240%22%20y%3D%22240%22%20width%3D%22120%22%20height%3D%22220%22%20as%3D%22geometry%22%2F%3E%3C%2FmxCell%3E%3CmxCell%20id%3D%225%22%20value%3D%22Mottar%20token%20og%20lagrer%20dette.%20Sender%20dette%20med%20i%20Authenticationfeltet%20for%20alle%20foresp%C3%B8rsler%22%20style%3D%22rounded%3D1%3BwhiteSpace%3Dwrap%3Bhtml%3D1%3B%22%20vertex%3D%221%22%20parent%3D%221%22%3E%3CmxGeometry%20x%3D%22600%22%20y%3D%22240%22%20width%3D%22120%22%20height%3D%22220%22%20as%3D%22geometry%22%2F%3E%3C%2FmxCell%3E%3CmxCell%20id%3D%226%22%20style%3D%22edgeStyle%3DorthogonalEdgeStyle%3Brounded%3D0%3BorthogonalLoop%3D1%3BjettySize%3Dauto%3Bhtml%3D1%3B%22%20edge%3D%221%22%20source%3D%227%22%20target%3D%228%22%20parent%3D%221%22%3E%3CmxGeometry%20relative%3D%221%22%20as%3D%22geometry%22%2F%3E%3C%2FmxCell%3E%3CmxCell%20id%3D%227%22%20value%3D%22Backend%20mottar%20login%20og%20sjekker%20epost%20og%20passord%20mot%20database%22%20style%3D%22rounded%3D0%3BwhiteSpace%3Dwrap%3Bhtml%3D1%3B%22%20vertex%3D%221%22%20parent%3D%221%22%3E%3CmxGeometry%20x%3D%22320%22%20y%3D%22240%22%20width%3D%22120%22%20height%3D%2260%22%20as%3D%22geometry%22%2F%3E%3C%2FmxCell%3E%3CmxCell%20id%3D%228%22%20value%3D%22Database%22%20style%3D%22shape%3Dcylinder3%3BwhiteSpace%3Dwrap%3Bhtml%3D1%3BboundedLbl%3D1%3BbackgroundOutline%3D1%3Bsize%3D15%3B%22%20vertex%3D%221%22%20parent%3D%221%22%3E%3CmxGeometry%20x%3D%22320%22%20y%3D%22380%22%20width%3D%22120%22%20height%3D%2280%22%20as%3D%22geometry%22%2F%3E%3C%2FmxCell%3E%3CmxCell%20id%3D%229%22%20style%3D%22edgeStyle%3DorthogonalEdgeStyle%3Brounded%3D0%3BorthogonalLoop%3D1%3BjettySize%3Dauto%3Bhtml%3D1%3BentryX%3D-0.01%3BentryY%3D0.135%3BentryDx%3D0%3BentryDy%3D0%3BentryPerimeter%3D0%3B%22%20edge%3D%221%22%20source%3D%227%22%20target%3D%225%22%20parent%3D%221%22%3E%3CmxGeometry%20relative%3D%221%22%20as%3D%22geometry%22%2F%3E%3C%2FmxCell%3E%3CmxCell%20id%3D%2210%22%20value%3D%22Sender%20token%20hvis%26lt%3Bdiv%26gt%3Bmatch%20med%20databasen%26lt%3Bdiv%26gt%3B%26lt%3Bbr%26gt%3B%26lt%3B%2Fdiv%26gt%3B%26lt%3B%2Fdiv%26gt%3B%22%20style%3D%22edgeLabel%3Bhtml%3D1%3Balign%3Dcenter%3BverticalAlign%3Dmiddle%3Bresizable%3D0%3Bpoints%3D%5B%5D%3B%22%20vertex%3D%221%22%20connectable%3D%220%22%20parent%3D%229%22%3E%3CmxGeometry%20x%3D%22-0.2106%22%20y%3D%222%22%20relative%3D%221%22%20as%3D%22geometry%22%3E%3CmxPoint%20as%3D%22offset%22%2F%3E%3C%2FmxGeometry%3E%3C%2FmxCell%3E%3C%2Froot%3E%3C%2FmxGraphModel%3E&lt;/span&gt;&lt;span style=&quot;color: rgba(0, 0, 0, 0); font-family: monospace; font-size: 0px; text-align: start; background-color: rgb(251, 251, 251);&quot;&gt;%3CmxGraphModel%3E%3Croot%3E%3CmxCell%20id%3D%220%22%2F%3E%3CmxCell%20id%3D%221%22%20parent%3D%220%22%2F%3E%3CmxCell%20id%3D%222%22%20style%3D%22edgeStyle%3DorthogonalEdgeStyle%3Brounded%3D0%3BorthogonalLoop%3D1%3BjettySize%3Dauto%3Bhtml%3D1%3BentryX%3D0%3BentryY%3D0.5%3BentryDx%3D0%3BentryDy%3D0%3B%22%20edge%3D%221%22%20source%3D%224%22%20target%3D%227%22%20parent%3D%221%22%3E%3CmxGeometry%20relative%3D%221%22%20as%3D%22geometry%22%3E%3CArray%20as%3D%22points%22%3E%3CmxPoint%20x%3D%22200%22%20y%3D%22270%22%2F%3E%3CmxPoint%20x%3D%22200%22%20y%3D%22270%22%2F%3E%3C%2FArray%3E%3C%2FmxGeometry%3E%3C%2FmxCell%3E%3CmxCell%20id%3D%223%22%20value%3D%22Sender%20login%20JSON%22%20style%3D%22edgeLabel%3Bhtml%3D1%3Balign%3Dcenter%3BverticalAlign%3Dmiddle%3Bresizable%3D0%3Bpoints%3D%5B%5D%3B%22%20vertex%3D%221%22%20connectable%3D%220%22%20parent%3D%222%22%3E%3CmxGeometry%20x%3D%22-0.2525%22%20y%3D%221%22%20relative%3D%221%22%20as%3D%22geometry%22%3E%3CmxPoint%20as%3D%22offset%22%2F%3E%3C%2FmxGeometry%3E%3C%2FmxCell%3E%3CmxCell%20id%3D%224%22%20value%3D%22Logg%20inn%20bilde%22%20style%3D%22rounded%3D1%3BwhiteSpace%3Dwrap%3Bhtml%3D1%3B%22%20vertex%3D%221%22%20parent%3D%221%22%3E%3CmxGeometry%20x%3D%2240%22%20y%3D%22240%22%20width%3D%22120%22%20height%3D%22220%22%20as%3D%22geometry%22%2F%3E%3C%2FmxCell%3E%3CmxCell%20id%3D%225%22%20value%3D%22Mottar%20token%20og%20lagrer%20dette.%20Sender%20dette%20med%20i%20Authenticationfeltet%20for%20alle%20foresp%C3%B8rsler%22%20style%3D%22rounded%3D1%3BwhiteSpace%3Dwrap%3Bhtml%3D1%3B%22%20vertex%3D%221%22%20parent%3D%221%22%3E%3CmxGeometry%20x%3D%22600%22%20y%3D%22240%22%20width%3D%22120%22%20height%3D%22220%22%20as%3D%22geometry%22%2F%3E%3C%2FmxCell%3E%3CmxCell%20id%3D%226%22%20style%3D%22edgeStyle%3DorthogonalEdgeStyle%3Brounded%3D0%3BorthogonalLoop%3D1%3BjettySize%3Dauto%3Bhtml%3D1%3B%22%20edge%3D%221%22%20source%3D%227%22%20target%3D%228%22%20parent%3D%221%22%3E%3CmxGeometry%20relative%3D%221%22%20as%3D%22geometry%22%2F%3E%3C%2FmxCell%3E%3CmxCell%20id%3D%227%22%20value%3D%22Backend%20mottar%20login%20og%20sjekker%20epost%20og%20passord%20mot%20database%22%20style%3D%22rounded%3D0%3BwhiteSpace%3Dwrap%3Bhtml%3D1%3B%22%20vertex%3D%221%22%20parent%3D%221%22%3E%3CmxGeometry%20x%3D%22320%22%20y%3D%22240%22%20width%3D%22120%22%20height%3D%2260%22%20as%3D%22geometry%22%2F%3E%3C%2FmxCell%3E%3CmxCell%20id%3D%228%22%20value%3D%22Database%22%20style%3D%22shape%3Dcylinder3%3BwhiteSpace%3Dwrap%3Bhtml%3D1%3BboundedLbl%3D1%3BbackgroundOutline%3D1%3Bsize%3D15%3B%22%20vertex%3D%221%22%20parent%3D%221%22%3E%3CmxGeometry%20x%3D%22320%22%20y%3D%22380%22%20width%3D%22120%22%20height%3D%2280%22%20as%3D%22geometry%22%2F%3E%3C%2FmxCell%3E%3CmxCell%20id%3D%229%22%20style%3D%22edgeStyle%3DorthogonalEdgeStyle%3Brounded%3D0%3BorthogonalLoop%3D1%3BjettySize%3Dauto%3Bhtml%3D1%3BentryX%3D-0.01%3BentryY%3D0.135%3BentryDx%3D0%3BentryDy%3D0%3BentryPerimeter%3D0%3B%22%20edge%3D%221%22%20source%3D%227%22%20target%3D%225%22%20parent%3D%221%22%3E%3CmxGeometry%20relative%3D%221%22%20as%3D%22geometry%22%2F%3E%3C%2FmxCell%3E%3CmxCell%20id%3D%2210%22%20value%3D%22Sender%20token%20hvis%26lt%3Bdiv%26gt%3Bmatch%20med%20databasen%26lt%3Bdiv%26gt%3B%26lt%3Bbr%26gt%3B%26lt%3B%2Fdiv%26gt%3B%26lt%3B%2Fdiv%26gt%3B%22%20style%3D%22edgeLabel%3Bhtml%3D1%3Balign%3Dcenter%3BverticalAlign%3Dmiddle%3Bresizable%3D0%3Bpoints%3D%5B%5D%3B%22%20vertex%3D%221%22%20connectable%3D%220%22%20parent%3D%229%22%3E%3CmxGeometry%20x%3D%22-0.2106%22%20y%3D%222%22%20relative%3D%221%22%20as%3D%22geometry%22%3E%3CmxPoint%20as%3D%22offset%22%2F%3E%3C%2FmxGeometry%3E%3C%2FmxCell%3E%3C%2Froot%3E%3C%2FmxGraphModel%3E&lt;/span&gt;" style="edgeLabel;html=1;align=center;verticalAlign=middle;resizable=0;points=[];" vertex="1" connectable="0" parent="iH8EphdXS5o_FpI6IKeJ-21">
          <mxGeometry x="-0.2591" y="-1" relative="1" as="geometry">
            <mxPoint as="offset" />
          </mxGeometry>
        </mxCell>
        <mxCell id="iH8EphdXS5o_FpI6IKeJ-29" value="Sender JSON med epost og passord" style="edgeLabel;html=1;align=center;verticalAlign=middle;resizable=0;points=[];" vertex="1" connectable="0" parent="iH8EphdXS5o_FpI6IKeJ-21">
          <mxGeometry x="-0.1809" y="1" relative="1" as="geometry">
            <mxPoint x="-84" y="-9" as="offset" />
          </mxGeometry>
        </mxCell>
        <mxCell id="iH8EphdXS5o_FpI6IKeJ-14" value="Side for registrer ny bruker" style="rounded=1;whiteSpace=wrap;html=1;" vertex="1" parent="1">
          <mxGeometry x="40" y="20" width="120" height="220" as="geometry" />
        </mxCell>
        <mxCell id="iH8EphdXS5o_FpI6IKeJ-16" style="edgeStyle=orthogonalEdgeStyle;rounded=0;orthogonalLoop=1;jettySize=auto;html=1;" edge="1" parent="1" source="iH8EphdXS5o_FpI6IKeJ-17" target="iH8EphdXS5o_FpI6IKeJ-18">
          <mxGeometry relative="1" as="geometry" />
        </mxCell>
        <mxCell id="iH8EphdXS5o_FpI6IKeJ-40" value="lagrer passord med HashPassword()" style="edgeLabel;html=1;align=center;verticalAlign=middle;resizable=0;points=[];" vertex="1" connectable="0" parent="iH8EphdXS5o_FpI6IKeJ-16">
          <mxGeometry x="-0.07" relative="1" as="geometry">
            <mxPoint as="offset" />
          </mxGeometry>
        </mxCell>
        <mxCell id="iH8EphdXS5o_FpI6IKeJ-17" value="Backend mottar login og sjekker epost mot database. Sjekker at passord oppfyller krav" style="rounded=0;whiteSpace=wrap;html=1;" vertex="1" parent="1">
          <mxGeometry x="610" y="20" width="120" height="100" as="geometry" />
        </mxCell>
        <mxCell id="iH8EphdXS5o_FpI6IKeJ-18" value="Database" style="shape=cylinder3;whiteSpace=wrap;html=1;boundedLbl=1;backgroundOutline=1;size=15;" vertex="1" parent="1">
          <mxGeometry x="610" y="160" width="120" height="80" as="geometry" />
        </mxCell>
        <mxCell id="iH8EphdXS5o_FpI6IKeJ-31" style="edgeStyle=orthogonalEdgeStyle;rounded=0;orthogonalLoop=1;jettySize=auto;html=1;entryX=1.03;entryY=0.39;entryDx=0;entryDy=0;entryPerimeter=0;exitX=-0.013;exitY=0.85;exitDx=0;exitDy=0;exitPerimeter=0;" edge="1" parent="1" source="iH8EphdXS5o_FpI6IKeJ-17" target="iH8EphdXS5o_FpI6IKeJ-14">
          <mxGeometry relative="1" as="geometry" />
        </mxCell>
        <mxCell id="iH8EphdXS5o_FpI6IKeJ-32" value="Tilbakemelding.&lt;div&gt;-sjekk epost hvis ok&lt;/div&gt;&lt;div&gt;-feilmelding hvis feil&lt;/div&gt;" style="edgeLabel;html=1;align=center;verticalAlign=middle;resizable=0;points=[];" vertex="1" connectable="0" parent="iH8EphdXS5o_FpI6IKeJ-31">
          <mxGeometry x="0.0906" y="-1" relative="1" as="geometry">
            <mxPoint x="134" y="25" as="offset" />
          </mxGeometry>
        </mxCell>
        <mxCell id="iH8EphdXS5o_FpI6IKeJ-39" value="Frontend gir beskjed til bruker om Ã¥&amp;nbsp;&lt;div&gt;sjekke epost for videre registrering&lt;/div&gt;" style="edgeLabel;html=1;align=center;verticalAlign=middle;resizable=0;points=[];" vertex="1" connectable="0" parent="iH8EphdXS5o_FpI6IKeJ-31">
          <mxGeometry x="0.6158" y="1" relative="1" as="geometry">
            <mxPoint x="21" y="13" as="offset" />
          </mxGeometry>
        </mxCell>
      </root>
    </mxGraphModel>
  </diagram>
</mxfile>
